<svg id="Layer_1" data-name="Layer 1" xmlns="http://www.w3.org/2000/svg" width="1920.5" height="991" viewBox="0 0 1920.5 991">
  <defs>
    <style>
      .cls-1 {
        fill: #8aa370;
      }
    </style>
  </defs>
  <title>četrti hrib</title>
  <g id="četrti_hrib" data-name="četrti hrib">
    <polygon class="cls-1" points="1920.5 204.32 1920 991 0 991 0.45 196.08 0.5 111.57 33 95 185 35 311 46 397 35 455 11 505 0 564 0 616 23 665 56 707 103 766 151 894 140 960 103 1018 75 1071 37 1197 46 1251 85 1304 97 1391 132 1446 105 1543 48 1626 75 1714 130 1793 167 1920.5 204.32"/>
  </g>
</svg>
