<svg id="Layer_1" data-name="Layer 1" xmlns="http://www.w3.org/2000/svg" width="1920.39" height="928.99836" viewBox="0 0 1920.39 928.99836">
  <defs>
    <style>
      .cls-1 {
        fill: #6f9458;
      }
    </style>
  </defs>
  <title>tretji hrib</title>
  <g id="tretji_hrib" data-name="tretji hrib">
    <path class="cls-1" d="M1919.89,424.40186,1919.5,1079.5H-.5V233.50493l45-22.347,105-41.50164,200,48.95066q91.755-30.807,183.5-61.60334,87.75,48.34941,175.5,96.72011Q769.745,274.8576,831,296.00215q28.5-7.00738,57-14.00414,35.745-15.196,71.5-30.40262l33-42.56578,41-21.2829,37-37.24507,56,6.38487,41,24.47533,44,27.66777,41,44.69407,41,8.51316,82-2.12829,54-48.95066,43-14.898,101,24.47533,62,60.65625,66,51.07894,115,45.75823Z" transform="translate(0.5 -150.50164)"/>
  </g>
</svg>
