<?xml version="1.0" encoding="utf-8"?>
<!-- Generator: Adobe Illustrator 23.0.3, SVG Export Plug-In . SVG Version: 6.00 Build 0)  -->
<svg version="1.1" id="Layer_1" xmlns="http://www.w3.org/2000/svg" xmlns:xlink="http://www.w3.org/1999/xlink" x="0px" y="0px"
	 viewBox="0 0 111.48 63.46" style="enable-background:new 0 0 111.48 63.46;" xml:space="preserve">
<style type="text/css">
	.st0{fill:#FFFFFF;}
</style>
<g>
	<path class="st0" d="M99.36,34.8c0.18-1.22,0.28-2.46,0.28-3.72c0-14.91-13.02-27-29.08-27c-10.86,0-20.33,5.54-25.32,13.73
		c-2.18-0.66-4.51-1.03-6.93-1.03c-10.52,0-19.33,6.79-21.64,15.9c-0.2-0.01-0.4-0.02-0.6-0.02c-7.02,0-12.71,5.69-12.71,12.71
		s5.69,12.71,12.71,12.71h76.24c7.02,0,12.71-5.69,12.71-12.71C105.02,40.96,102.77,37.07,99.36,34.8z"/>
</g>
</svg>
